name analog
datacolumns 19
datarows 52
range 0.421 0.4465
endheader
time	ground_force_vx	ground_force_vy	ground_force_vz	ground_force_px	ground_force_py	ground_force_pz	l_ground_force_vx	l_ground_force_vy	l_ground_force_vz	l_ground_force_px	l_ground_force_py	l_ground_force_pz	ground_torque_x	ground_torque_y	ground_torque_z	l_ground_torque_x	l_ground_torque_y	l_ground_torque_z
0.421	-0.0	-0.0	-0.0	-0.0	-0.0	-0.0	-6.415216445922852	-2.6356921195983887	-793.10693359375	-0.0	-0.0	-0.0	-0.0	-0.0	-0.0	247949.25	-5858.76025390625	-3740.556884765625
0.4215	-0.0	-0.0	-0.0	-0.0	-0.0	-0.0	-6.394148826599121	-2.656592607498169	-790.130126953125	-0.0	-0.0	-0.0	-0.0	-0.0	-0.0	247612.96875	-5781.86572265625	-3706.232666015625
0.422	-0.0	-0.0	-0.0	-0.0	-0.0	-0.0	-6.578487873077393	-2.751801013946533	-789.4317626953125	-0.0	-0.0	-0.0	-0.0	-0.0	-0.0	247459.890625	-5640.54443359375	-3535.398193359375
0.4225	-0.0	-0.0	-0.0	-0.0	-0.0	-0.0	-6.202847480773926	-2.4867613315582275	-790.211669921875	-0.0	-0.0	-0.0	-0.0	-0.0	-0.0	247725.421875	-6004.08349609375	-3491.541259765625
0.423	-0.0	-0.0	-0.0	-0.0	-0.0	-0.0	-5.411357879638672	-2.5544891357421875	-791.8488159179688	-0.0	-0.0	-0.0	-0.0	-0.0	-0.0	247867.515625	-5803.478515625	-2998.26806640625
0.4235	-0.0	-0.0	-0.0	-0.0	-0.0	-0.0	-4.49008321762085	-1.9362736940383911	-791.25830078125	-0.0	-0.0	-0.0	-0.0	-0.0	-0.0	247868.546875	-6052.4853515625	-2705.39794921875
0.424	-0.0	-0.0	-0.0	-0.0	-0.0	-0.0	-3.3233535289764404	-1.2365036010742188	-791.8490600585938	-0.0	-0.0	-0.0	-0.0	-0.0	-0.0	247926.75	-6314.48193359375	-2368.97119140625
0.4245	-0.0	-0.0	-0.0	-0.0	-0.0	-0.0	-2.647782325744629	-0.7948951721191406	-789.7010498046875	-0.0	-0.0	-0.0	-0.0	-0.0	-0.0	248088.78125	-6183.57470703125	-2076.303955078125
0.425	-0.0	-0.0	-0.0	-0.0	-0.0	-0.0	-1.8427271842956543	-1.141478419303894	-790.6958618164062	-0.0	-0.0	-0.0	-0.0	-0.0	-0.0	247534.625	-6420.76318359375	-1794.9517822265625
0.4255	-0.0	-0.0	-0.0	-0.0	-0.0	-0.0	-1.2837234735488892	-1.4264991283416748	-787.71240234375	-0.0	-0.0	-0.0	-0.0	-0.0	-0.0	247645.34375	-6121.71630859375	-1550.5321044921875
0.426	-0.0	-0.0	-0.0	-0.0	-0.0	-0.0	-0.6409794688224792	-1.46827495098114	-786.071533203125	-0.0	-0.0	-0.0	-0.0	-0.0	-0.0	247006.3125	-6637.5595703125	-1509.2353515625
0.4265	-0.0	-0.0	-0.0	-0.0	-0.0	-0.0	-0.525634229183197	-1.3710352182388306	-786.9094848632812	-0.0	-0.0	-0.0	-0.0	-0.0	-0.0	246625.265625	-6568.47216796875	-1358.6163330078125
0.427	-0.0	-0.0	-0.0	-0.0	-0.0	-0.0	-0.5879604816436768	-1.5343388319015503	-784.6996459960938	-0.0	-0.0	-0.0	-0.0	-0.0	-0.0	246622.828125	-6598.49609375	-1207.2413330078125
0.4275	-0.0	-0.0	-0.0	-0.0	-0.0	-0.0	-0.3417121171951294	-1.5963270664215088	-784.2979736328125	-0.0	-0.0	-0.0	-0.0	-0.0	-0.0	246559.9375	-6625.833984375	-1253.12451171875
0.428	-0.0	-0.0	-0.0	-0.0	-0.0	-0.0	0.3483151197433471	-1.7664337158203125	-785.1905517578125	-0.0	-0.0	-0.0	-0.0	-0.0	-0.0	246640.890625	-6761.96826171875	-1321.9852294921875
0.4285	-0.0	-0.0	-0.0	-0.0	-0.0	-0.0	0.791896641254425	-1.884829878807068	-783.7686157226562	-0.0	-0.0	-0.0	-0.0	-0.0	-0.0	246325.953125	-6875.458984375	-1006.3192749023438
0.429	-0.0	-0.0	-0.0	-0.0	-0.0	-0.0	0.7355380058288574	-1.5143377780914309	-783.7435913085938	-0.0	-0.0	-0.0	-0.0	-0.0	-0.0	245645.234375	-7139.65380859375	-832.61572265625
0.4295	-0.0	-0.0	-0.0	-0.0	-0.0	-0.0	1.2419509887695312	-1.710098385810852	-780.7536010742188	-0.0	-0.0	-0.0	-0.0	-0.0	-0.0	245427.078125	-7195.91259765625	-804.7774047851562
0.43	-0.0	-0.0	-0.0	-0.0	-0.0	-0.0	0.9126989841461182	-2.03139877319336	-780.602294921875	-0.0	-0.0	-0.0	-0.0	-0.0	-0.0	245237.21875	-7342.453125	-650.3363647460938
0.4305	-0.0	-0.0	-0.0	-0.0	-0.0	-0.0	0.8047573566436768	-2.2773666381835938	-777.8096313476562	-0.0	-0.0	-0.0	-0.0	-0.0	-0.0	244890.75	-7436.6708984375	-745.8607177734375
0.431	-0.0	-0.0	-0.0	-0.0	-0.0	-0.0	1.1976913213729858	-1.722177505493164	-778.8826293945312	-0.0	-0.0	-0.0	-0.0	-0.0	-0.0	244860.734375	-7252.59228515625	-883.1639404296875
0.4315	-0.0	-0.0	-0.0	-0.0	-0.0	-0.0	0.5574087500572205	-1.943077087402344	-776.5626831054688	-0.0	-0.0	-0.0	-0.0	-0.0	-0.0	245177.90625	-7338.44189453125	-1093.462646484375
0.432	-0.0	-0.0	-0.0	-0.0	-0.0	-0.0	0.0062576388008892	-1.8173742294311523	-777.9590454101562	-0.0	-0.0	-0.0	-0.0	-0.0	-0.0	245794.078125	-7588.923828125	-1244.25439453125
0.4325	-0.0	-0.0	-0.0	-0.0	-0.0	-0.0	-0.0062201512046158	-0.6818020343780518	-780.0292358398438	-0.0	-0.0	-0.0	-0.0	-0.0	-0.0	246604.78125	-7984.10595703125	-1497.9393310546875
0.433	-0.0	-0.0	-0.0	-0.0	-0.0	-0.0	0.0825281217694282	0.2588095068931579	-782.1239624023438	-0.0	-0.0	-0.0	-0.0	-0.0	-0.0	247280.234375	-8331.876953125	-1563.7999267578125
0.4335	-0.0	-0.0	-0.0	-0.0	-0.0	-0.0	0.2907659113407135	0.5483242273330688	-783.2440185546875	-0.0	-0.0	-0.0	-0.0	-0.0	-0.0	248057.078125	-8560.9072265625	-1605.630615234375
0.434	-0.0	-0.0	-0.0	-0.0	-0.0	-0.0	0.3854476511478424	0.8649346828460693	-781.8709106445312	-0.0	-0.0	-0.0	-0.0	-0.0	-0.0	248495.984375	-8850.9443359375	-1624.8880615234375
0.4345	-0.0	-0.0	-0.0	-0.0	-0.0	-0.0	0.8931912779808044	1.0598602294921875	-782.4248046875	-0.0	-0.0	-0.0	-0.0	-0.0	-0.0	248665.390625	-9125.58203125	-1375.8468017578125
0.435	-0.0	-0.0	-0.0	-0.0	-0.0	-0.0	0.7339093685150146	0.9474217295646667	-781.98046875	-0.0	-0.0	-0.0	-0.0	-0.0	-0.0	248732.75	-9901.2236328125	-1592.9954833984375
0.4355	-0.0	-0.0	-0.0	-0.0	-0.0	-0.0	1.4314091205596924	0.6945897340774536	-779.513427734375	-0.0	-0.0	-0.0	-0.0	-0.0	-0.0	248498.796875	-10031.1767578125	-1624.29052734375
0.436	-0.0	-0.0	-0.0	-0.0	-0.0	-0.0	1.5140641927719116	0.2590104937553406	-778.0039672851562	-0.0	-0.0	-0.0	-0.0	-0.0	-0.0	248437.859375	-10356.3388671875	-1486.0592041015625
0.4365	-0.0	-0.0	-0.0	-0.0	-0.0	-0.0	1.6914581060409546	0.6301059126853943	-778.2823486328125	-0.0	-0.0	-0.0	-0.0	-0.0	-0.0	248492.390625	-10412.4755859375	-1509.5123291015625
0.437	-0.0	-0.0	-0.0	-0.0	-0.0	-0.0	1.2301195859909058	0.6241415739059448	-778.2589111328125	-0.0	-0.0	-0.0	-0.0	-0.0	-0.0	248822.6875	-10957.662109375	-1693.773193359375
0.4375	-0.0	-0.0	-0.0	-0.0	-0.0	-0.0	0.5616557598114014	0.9124789834022522	-779.0035400390625	-0.0	-0.0	-0.0	-0.0	-0.0	-0.0	249137.296875	-11397.8115234375	-1901.798583984375
0.438	-0.0	-0.0	-0.0	-0.0	-0.0	-0.0	0.8988088965415955	0.7881214618682861	-779.724609375	-0.0	-0.0	-0.0	-0.0	-0.0	-0.0	249919.421875	-11460.2138671875	-1842.2437744140625
0.4385	-0.0	-0.0	-0.0	-0.0	-0.0	-0.0	1.49645733833313	1.57821524143219	-780.6343383789062	-0.0	-0.0	-0.0	-0.0	-0.0	-0.0	249642.625	-11981.8740234375	-1503.62548828125
0.439	-0.0	-0.0	-0.0	-0.0	-0.0	-0.0	1.845599889755249	1.319075107574463	-777.9097900390625	-0.0	-0.0	-0.0	-0.0	-0.0	-0.0	249439.59375	-12079.6796875	-1271.974853515625
0.4395	-0.0	-0.0	-0.0	-0.0	-0.0	-0.0	1.3364005088806152	1.4500470161437988	-776.4454345703125	-0.0	-0.0	-0.0	-0.0	-0.0	-0.0	249322.546875	-12068.923828125	-1337.40087890625
0.44	-0.0	-0.0	-0.0	-0.0	-0.0	-0.0	1.058819055557251	0.276335746049881	-775.8823852539062	-0.0	-0.0	-0.0	-0.0	-0.0	-0.0	249135.875	-12302.0888671875	-1217.3118896484375
0.4405	-0.0	-0.0	-0.0	-0.0	-0.0	-0.0	0.7437236905097961	-0.0996177271008491	-774.39599609375	-0.0	-0.0	-0.0	-0.0	-0.0	-0.0	248565.796875	-12567.5087890625	-1206.2371826171875
0.441	-0.0	-0.0	-0.0	-0.0	-0.0	-0.0	0.998360276222229	-1.1481819152832031	-772.0186157226562	-0.0	-0.0	-0.0	-0.0	-0.0	-0.0	248242.890625	-12525.3740234375	-885.73388671875
0.4415	-0.0	-0.0	-0.0	-0.0	-0.0	-0.0	2.045959234237671	-1.1537684202194214	-770.3168334960938	-0.0	-0.0	-0.0	-0.0	-0.0	-0.0	247936.96875	-13078.1787109375	-614.277587890625
0.442	-0.0	-0.0	-0.0	-0.0	-0.0	-0.0	2.223343133926392	-1.1814769506454468	-771.9303588867188	-0.0	-0.0	-0.0	-0.0	-0.0	-0.0	247856.84375	-13111.462890625	-236.0311737060547
0.4425	-0.0	-0.0	-0.0	-0.0	-0.0	-0.0	2.295408248901367	-1.506980538368225	-771.27587890625	-0.0	-0.0	-0.0	-0.0	-0.0	-0.0	247750.546875	-13245.8203125	-243.46751403808597
0.443	-0.0	-0.0	-0.0	-0.0	-0.0	-0.0	2.3566317558288574	-1.8657240867614744	-772.36669921875	-0.0	-0.0	-0.0	-0.0	-0.0	-0.0	248480.875	-13467.5498046875	-297.2802429199219
0.4435	-0.0	-0.0	-0.0	-0.0	-0.0	-0.0	1.9735212326049805	-2.164466142654419	-774.724365234375	-0.0	-0.0	-0.0	-0.0	-0.0	-0.0	249039.40625	-13939.1123046875	-167.98318481445312
0.444	-0.0	-0.0	-0.0	-0.0	-0.0	-0.0	2.228636741638184	-1.6114290952682495	-775.09521484375	-0.0	-0.0	-0.0	-0.0	-0.0	-0.0	249661.09375	-14088.7880859375	-82.36566162109375
0.4445	-0.0	-0.0	-0.0	-0.0	-0.0	-0.0	3.1665589809417725	-1.241885781288147	-774.3031616210938	-0.0	-0.0	-0.0	-0.0	-0.0	-0.0	250452.390625	-14502.5947265625	54.03401947021485
0.445	-0.0	-0.0	-0.0	-0.0	-0.0	-0.0	3.7258529663085938	-1.1695612668991089	-776.9679565429688	-0.0	-0.0	-0.0	-0.0	-0.0	-0.0	250962.28125	-14751.4140625	361.9114990234375
0.4455	-0.0	-0.0	-0.0	-0.0	-0.0	-0.0	4.398222923278809	-1.2205810546875	-779.8998413085938	-0.0	-0.0	-0.0	-0.0	-0.0	-0.0	251301.15625	-14977.837890625	510.6718444824219
0.446	-0.0	-0.0	-0.0	-0.0	-0.0	-0.0	4.378647804260254	-1.0545802116394043	-779.655517578125	-0.0	-0.0	-0.0	-0.0	-0.0	-0.0	252017.953125	-15194.265625	709.463134765625
0.4465	-0.0	-0.0	-0.0	-0.0	-0.0	-0.0	5.056514739990234	-0.3480440676212311	-780.45751953125	-0.0	-0.0	-0.0	-0.0	-0.0	-0.0	252709.484375	-15526.427734375	718.9664306640625
